<svg width="30" height="30" viewBox="4 0 28 26" fill="none" xmlns="http://www.w3.org/2000/svg">
<path d="M28.3659 22.3918H27.9997V11.131C27.9997 10.6192 27.5832 10.2027 27.0713 10.2027H20.4263V1.24548C20.4263 0.560425 19.8689 0.00305176 19.1838 0.00305176H7.57778C6.89272 0.00305176 6.33535 0.560425 6.33535 1.24548V22.3917H5.96909C5.25137 22.3918 4.66748 22.9757 4.66748 23.6934C4.66748 24.4111 5.25137 24.9949 5.96904 24.9949H28.3659C29.0836 24.9949 29.6675 24.4111 29.6675 23.6934C29.6675 22.9757 29.0836 22.3918 28.3659 22.3918ZM7.06772 1.24548C7.06772 0.964233 7.29653 0.735474 7.57773 0.735474H19.1838C19.465 0.735474 19.6938 0.964282 19.6938 1.24548V10.2027H16.5678C16.0559 10.2027 15.6394 10.6191 15.6394 11.131V19.5531C15.6394 19.7553 15.8033 19.9193 16.0056 19.9193C16.2079 19.9193 16.3718 19.7553 16.3718 19.5531V11.131C16.3718 11.023 16.4597 10.9351 16.5678 10.9351H27.0713C27.1793 10.9351 27.2672 11.023 27.2672 11.131V22.3917H16.3718V21.2651C16.3718 21.0628 16.2079 20.8989 16.0056 20.8989C15.8033 20.8989 15.6394 21.0628 15.6394 21.2651V22.3917H7.06772V1.24548ZM28.3659 24.2625H5.96904C5.65518 24.2625 5.3999 24.0072 5.3999 23.6934C5.3999 23.3796 5.65522 23.1242 5.96904 23.1242H28.3659C28.6798 23.1242 28.9351 23.3795 28.9351 23.6934C28.9351 24.0072 28.6797 24.2625 28.3659 24.2625Z" fill="currentColor"/>
<path d="M10.3966 2.23468H8.89414C8.49399 2.23468 8.16846 2.56022 8.16846 2.96036V4.46286C8.16846 4.863 8.49399 5.18854 8.89414 5.18854H10.3966C10.7968 5.18854 11.1223 4.863 11.1223 4.46286V2.96036C11.1223 2.56022 10.7968 2.23468 10.3966 2.23468ZM10.3899 4.45617H8.90083V2.9671H10.3899V4.45617Z" fill="currentColor"/>
<path d="M14.132 2.23468H12.6294C12.2293 2.23468 11.9038 2.56022 11.9038 2.96036V4.46286C11.9038 4.863 12.2293 5.18854 12.6294 5.18854H14.132C14.5321 5.18854 14.8577 4.863 14.8577 4.46286V2.96036C14.8577 2.56022 14.5321 2.23468 14.132 2.23468ZM14.1252 4.45617H12.6362V2.9671H14.1252V4.45617Z" fill="currentColor"/>
<path d="M16.3653 5.18858H17.8679C18.268 5.18858 18.5936 4.86305 18.5936 4.4629V2.96036C18.5936 2.56022 18.268 2.23468 17.8679 2.23468H16.3653C15.9652 2.23468 15.6396 2.56022 15.6396 2.96036V4.46285C15.6396 4.86305 15.9652 5.18858 16.3653 5.18858ZM16.3721 2.9671H17.8612V4.45616H16.3721V2.9671Z" fill="currentColor"/>
<path d="M10.3966 6.80627H8.89414C8.49399 6.80627 8.16846 7.13181 8.16846 7.53196V9.03445C8.16846 9.43459 8.49399 9.76013 8.89414 9.76013H10.3966C10.7968 9.76013 11.1223 9.43459 11.1223 9.03445V7.53196C11.1223 7.13181 10.7968 6.80627 10.3966 6.80627ZM10.3899 9.02776H8.90083V7.5387H10.3899V9.02776Z" fill="currentColor"/>
<path d="M14.132 6.80627H12.6294C12.2293 6.80627 11.9038 7.13181 11.9038 7.53196V9.03445C11.9038 9.43459 12.2293 9.76013 12.6294 9.76013H14.132C14.5321 9.76013 14.8577 9.43459 14.8577 9.03445V7.53196C14.8577 7.13181 14.5321 6.80627 14.132 6.80627ZM14.1252 9.02776H12.6362V7.5387H14.1252V9.02776Z" fill="currentColor"/>
<path d="M16.3653 9.76019H17.8679C18.268 9.76019 18.5936 9.43466 18.5936 9.03451V7.53202C18.5936 7.13187 18.268 6.80634 17.8679 6.80634H16.3653C15.9652 6.80634 15.6396 7.13187 15.6396 7.53202V9.03451C15.6396 9.43466 15.9652 9.76019 16.3653 9.76019ZM16.3721 7.53871H17.8612V9.02777H16.3721V7.53871Z" fill="currentColor"/>
<path d="M10.3966 11.3777H8.89414C8.49399 11.3777 8.16846 11.7032 8.16846 12.1034V13.6059C8.16846 14.006 8.49399 14.3316 8.89414 14.3316H10.3966C10.7968 14.3316 11.1223 14.006 11.1223 13.6059V12.1034C11.1223 11.7032 10.7968 11.3777 10.3966 11.3777ZM10.3899 13.5992H8.90083V12.1101H10.3899V13.5992Z" fill="currentColor"/>
<path d="M14.132 11.3777H12.6294C12.2293 11.3777 11.9038 11.7032 11.9038 12.1034V13.6059C11.9038 14.006 12.2293 14.3316 12.6294 14.3316H14.132C14.5321 14.3316 14.8577 14.006 14.8577 13.6059V12.1034C14.8577 11.7032 14.5321 11.3777 14.132 11.3777ZM14.1252 13.5992H12.6362V12.1101H14.1252V13.5992Z" fill="currentColor"/>
<path d="M10.3966 15.9492H8.89414C8.49399 15.9492 8.16846 16.2748 8.16846 16.6749V18.1774C8.16846 18.5775 8.49399 18.9031 8.89414 18.9031H10.3966C10.7968 18.9031 11.1223 18.5775 11.1223 18.1774V16.6749C11.1223 16.2748 10.7968 15.9492 10.3966 15.9492ZM10.3899 18.1707H8.90083V16.6816H10.3899V18.1707Z" fill="currentColor"/>
<path d="M14.132 15.9492H12.6294C12.2293 15.9492 11.9038 16.2748 11.9038 16.6749V18.1774C11.9038 18.5775 12.2293 18.9031 12.6294 18.9031H14.132C14.5321 18.9031 14.8577 18.5775 14.8577 18.1774V16.6749C14.8577 16.2748 14.5321 15.9492 14.132 15.9492ZM14.1252 18.1707H12.6362V16.6816H14.1252V18.1707Z" fill="currentColor"/>
<path d="M17.8587 14.7881H19.2816C19.6267 14.7881 19.9074 14.5074 19.9074 14.1623V12.7756C19.9074 12.4305 19.6267 12.1498 19.2816 12.1498H17.8587C17.5136 12.1498 17.2329 12.4305 17.2329 12.7756V14.1623C17.2329 14.5074 17.5136 14.7881 17.8587 14.7881ZM17.9653 12.8822H19.175V14.0556H17.9653V12.8822Z" fill="currentColor"/>
<path d="M17.8587 17.7817H19.2816C19.6267 17.7817 19.9074 17.501 19.9074 17.1559V15.7692C19.9074 15.4241 19.6267 15.1434 19.2816 15.1434H17.8587C17.5136 15.1434 17.2329 15.4241 17.2329 15.7692V17.1559C17.2329 17.501 17.5136 17.7817 17.8587 17.7817ZM17.9653 15.8758H19.175V17.0493H17.9653V15.8758Z" fill="currentColor"/>
<path d="M17.8587 20.7753H19.2816C19.6267 20.7753 19.9074 20.4946 19.9074 20.1495V18.7627C19.9074 18.4177 19.6267 18.137 19.2816 18.137H17.8587C17.5136 18.137 17.2329 18.4177 17.2329 18.7627V20.1495C17.2329 20.4946 17.5136 20.7753 17.8587 20.7753ZM17.9653 18.8693H19.175V20.0429H17.9653V18.8693Z" fill="currentColor"/>
<path d="M21.1082 14.7881H22.5312C22.8762 14.7881 23.1569 14.5074 23.1569 14.1623V12.7756C23.1569 12.4305 22.8762 12.1498 22.5312 12.1498H21.1082C20.7631 12.1498 20.4824 12.4305 20.4824 12.7756V14.1623C20.4824 14.5074 20.7631 14.7881 21.1082 14.7881ZM21.2148 12.8822H22.4245V14.0556H21.2148V12.8822Z" fill="currentColor"/>
<path d="M21.1082 17.7817H22.5312C22.8762 17.7817 23.1569 17.501 23.1569 17.1559V15.7692C23.1569 15.4241 22.8762 15.1434 22.5312 15.1434H21.1082C20.7631 15.1434 20.4824 15.4241 20.4824 15.7692V17.1559C20.4824 17.501 20.7631 17.7817 21.1082 17.7817ZM21.2148 15.8758H22.4245V17.0493H21.2148V15.8758Z" fill="currentColor"/>
<path d="M21.1082 20.7753H22.5312C22.8762 20.7753 23.1569 20.4946 23.1569 20.1495V18.7627C23.1569 18.4177 22.8762 18.137 22.5312 18.137H21.1082C20.7631 18.137 20.4824 18.4177 20.4824 18.7627V20.1495C20.4824 20.4946 20.7631 20.7753 21.1082 20.7753ZM21.2148 18.8693H22.4245V20.0429H21.2148V18.8693Z" fill="currentColor"/>
<path d="M24.3572 14.7881H25.7802C26.1252 14.7881 26.406 14.5074 26.406 14.1623V12.7756C26.406 12.4305 26.1252 12.1498 25.7802 12.1498H24.3572C24.0122 12.1498 23.7314 12.4305 23.7314 12.7756V14.1623C23.7314 14.5074 24.0122 14.7881 24.3572 14.7881ZM24.4639 12.8822H25.6735V14.0556H24.4639V12.8822Z" fill="currentColor"/>
<path d="M24.3572 17.7817H25.7802C26.1252 17.7817 26.406 17.501 26.406 17.1559V15.7692C26.406 15.4241 26.1252 15.1434 25.7802 15.1434H24.3572C24.0122 15.1434 23.7314 15.4241 23.7314 15.7692V17.1559C23.7314 17.501 24.0122 17.7817 24.3572 17.7817ZM24.4639 15.8758H25.6735V17.0493H24.4639V15.8758Z" fill="currentColor"/>
<path d="M24.3572 20.7753H25.7802C26.1252 20.7753 26.406 20.4946 26.406 20.1495V18.7627C26.406 18.4177 26.1252 18.137 25.7802 18.137H24.3572C24.0122 18.137 23.7314 18.4177 23.7314 18.7627V20.1495C23.7314 20.4946 24.0122 20.7753 24.3572 20.7753ZM24.4639 18.8693H25.6735V20.0429H24.4639V18.8693Z" fill="currentColor"/>
<path d="M24.6489 8.48466C24.9 8.66796 25.2375 8.66805 25.4885 8.48466C26.1218 8.02211 27.6412 6.75409 28.07 4.97333C28.1173 4.7767 27.9963 4.57889 27.7997 4.53153C27.603 4.48441 27.4052 4.60526 27.3579 4.80184C26.9789 6.37572 25.5261 7.54833 25.0687 7.88427C24.4933 7.4618 22.6865 5.97826 22.6865 4.03158C22.6865 2.71805 23.7552 1.6494 25.0687 1.6494C26.1005 1.6494 27.0101 2.30741 27.3321 3.28671C27.3953 3.47885 27.6023 3.58344 27.7944 3.5202C27.9866 3.45702 28.0911 3.25004 28.0279 3.0579C27.6068 1.77728 26.4176 0.916931 25.0687 0.916931C23.3513 0.916931 21.9541 2.31415 21.9541 4.03153C21.9541 6.33734 24.0167 8.02294 24.6489 8.48466Z" fill="currentColor"/>
<path d="M25.0686 2.29932C24.1135 2.29932 23.3364 3.07637 23.3364 4.03154C23.3364 4.98672 24.1135 5.76377 25.0686 5.76377C26.0238 5.76377 26.8008 4.98672 26.8008 4.03154C26.8008 3.07637 26.0238 2.29932 25.0686 2.29932ZM25.0686 5.0313C24.5173 5.0313 24.0688 4.58276 24.0688 4.03149C24.0688 3.48022 24.5173 3.03169 25.0686 3.03169C25.6199 3.03169 26.0684 3.48022 26.0684 4.03149C26.0684 4.58276 25.6199 5.0313 25.0686 5.0313Z" fill="currentColor"/>
</svg>
